<?xml version="1.0" encoding="UTF-8" standalone="no"?>
<svg width="150px" height="150px" viewBox="0 0 150 150" version="1.1" xmlns="http://www.w3.org/2000/svg" xmlns:xlink="http://www.w3.org/1999/xlink" xmlns:sketch="http://www.bohemiancoding.com/sketch/ns">
    <!-- Generator: Sketch 3.4.2 (15855) - http://www.bohemiancoding.com/sketch -->
    <title>binoculars</title>
    <desc>Created with Sketch.</desc>
    <defs></defs>
    <g id="Page-1" stroke="none" stroke-width="1" fill="none" fill-rule="evenodd" sketch:type="MSPage">
        <g id="Desktop-HD" sketch:type="MSArtboardGroup" transform="translate(-89.000000, -324.000000)">
            <g id="binoculars" sketch:type="MSLayerGroup" transform="translate(89.000000, 324.000000)">
                <rect id="Rectangle-27-Copy-2" fill="#FFFFFF" sketch:type="MSShapeGroup" x="0" y="0" width="150" height="150" rx="100"></rect>
                <circle id="Oval-3-Copy" fill="#4990E2" sketch:type="MSShapeGroup" cx="75" cy="75" r="60"></circle>
                <g id="spy4" transform="translate(25.000000, 44.000000)" fill="#FFFFFF" sketch:type="MSShapeGroup">
                    <g id="Capa_1">
                        <g id="Group">
                            <path d="M16.703854,46.3705882 C15.3811359,45.7231237 14.3851927,44.5973631 13.9083164,43.2028398 C13.430426,41.8070994 13.5243408,40.3089249 14.1713996,38.9845842 C14.5862069,38.1361055 14.2350913,37.1125761 13.3868154,36.6969574 C12.541785,36.2845842 11.5166329,36.6371197 11.0991886,37.4819473 C8.93488844,41.9107505 10.772211,47.2760649 15.2008114,49.4434077 C15.4440162,49.562069 15.7014199,49.6174442 15.951927,49.6174442 C16.5831643,49.6174442 17.1908722,49.2649087 17.4918864,48.6586207 C17.9060852,47.8103448 17.5515213,46.7868154 16.703854,46.3705882 L16.703854,46.3705882 Z" id="Shape"></path>
                            <path d="M98.0300203,33.0997972 C97.0340771,31.0606491 95.6853955,29.2973631 94.1219067,27.7892495 C94.1219067,27.7892495 81.3588235,11.5470588 77.2758621,5.99330629 C73.5421907,0.914604462 67.169574,-1.55659229 61.3979716,1.26389452 C55.6296146,4.08640974 53.121501,10.8160243 55.3855984,16.6975659 L57.1862069,23.6929006 L42.9815416,23.6929006 L44.7789047,16.6975659 C47.0464503,10.8160243 44.5383367,4.08640974 38.7665314,1.26389452 C32.9983773,-1.55659229 26.7030426,0.969979716 22.8953347,5.99330629 C18.3318458,12.0137931 6.04584178,27.7892495 6.04584178,27.7892495 C4.48235294,29.2973631 3.1336714,31.0606491 2.13427992,33.0997972 C-0.0829614604,37.6387424 -0.404056795,42.7707911 1.23651116,47.5494929 C2.87606491,52.3292089 6.27951318,56.1833671 10.8180527,58.4046653 C13.4334686,59.6833671 16.2257606,60.3314402 19.1212982,60.3314402 C26.4093306,60.3314402 32.9219067,56.26714 36.1251521,49.7225152 C36.8762677,48.1825558 37.3809331,46.5876268 37.6878296,44.9799189 L47.3373225,49.2630832 C49.0868154,50.0395538 51.0843813,50.0395538 52.8348884,49.2630832 L62.4801217,44.9799189 C62.7870183,46.5876268 63.2882353,48.1825558 64.0436105,49.7225152 C67.2425963,56.2653144 73.7626775,60.3314402 81.0498986,60.3314402 L81.0498986,60.3314402 C83.9419878,60.3314402 86.7342799,59.6833671 89.3496957,58.4046653 C93.8882353,56.18357 97.2914807,52.3292089 98.9312373,47.5494929 C100.571805,42.7707911 100.25071,37.6387424 98.0300203,33.0997972 L98.0300203,33.0997972 Z M29.979716,46.71643 C27.9350913,50.894929 23.7738337,53.4914807 19.121501,53.4914807 C17.2780933,53.4914807 15.4943205,53.0772819 13.8243408,52.2590264 C10.9255578,50.8411765 8.75436105,48.3811359 7.70567951,45.3286004 C6.66024341,42.2776876 6.86409736,39.0028398 8.27991886,36.1056795 C10.3245436,31.9271805 14.4858012,29.3308316 19.1415822,29.3308316 C20.9849899,29.3308316 22.7687627,29.7450304 24.4385396,30.5630832 C30.4172414,33.4888438 32.9054767,40.7346856 29.979716,46.71643 L29.979716,46.71643 Z M50.0825558,40.6513185 C47.4872211,40.6513185 45.379716,38.5456389 45.379716,35.9484787 C45.379716,33.351927 47.4872211,31.2460446 50.0825558,31.2460446 C52.6805274,31.2460446 54.7845842,33.351927 54.7845842,35.9484787 C54.7845842,38.5456389 52.6805274,40.6513185 50.0825558,40.6513185 L50.0825558,40.6513185 Z M92.4588235,45.3286004 C91.4135903,48.3811359 89.2389452,50.8411765 86.3436105,52.2590264 C84.6703854,53.0772819 82.8933063,53.4914807 81.0498986,53.4914807 C76.3939148,53.4914807 72.2326572,50.8947262 70.1882353,46.71643 C67.2626775,40.7348884 69.7482759,33.4888438 75.7326572,30.5630832 C77.4024341,29.7450304 79.1829615,29.3308316 81.0263692,29.3308316 C85.6789047,29.3308316 89.8401623,31.9273834 91.8845842,36.1056795 C93.303854,39.0028398 93.5073022,42.2776876 92.4588235,45.3286004 L92.4588235,45.3286004 Z" id="Shape"></path>
                            <path d="M86.7811359,36.6967546 C85.93286,37.1125761 85.5823529,38.1361055 85.9963489,38.9843813 C86.6444219,40.3087221 86.7373225,41.8068966 86.2596349,43.2026369 C85.7793103,44.5971602 84.7868154,45.7229209 83.4614604,46.3703854 C82.6129817,46.7868154 82.2653144,47.8103448 82.6793103,48.6584178 C82.9736308,49.264503 83.5813387,49.6172414 84.2160243,49.6172414 C84.4699797,49.6172414 84.7239351,49.5618661 84.964503,49.4432049 C89.3931034,47.2758621 91.2365112,41.9105477 89.0685598,37.4817444 C88.6513185,36.6336714 87.63286,36.2809331 86.7811359,36.6967546 L86.7811359,36.6967546 Z" id="Shape"></path>
                        </g>
                    </g>
                </g>
            </g>
        </g>
    </g>
</svg>