<?xml version="1.0" encoding="UTF-8" standalone="no"?>
<svg width="381px" height="491px" viewBox="0 0 381 491" version="1.1" xmlns="http://www.w3.org/2000/svg" xmlns:xlink="http://www.w3.org/1999/xlink" xmlns:sketch="http://www.bohemiancoding.com/sketch/ns">
    <!-- Generator: Sketch 3.4.2 (15855) - http://www.bohemiancoding.com/sketch -->
    <title>farm</title>
    <desc>Created with Sketch.</desc>
    <defs></defs>
    <g id="Page-1" stroke="none" stroke-width="1" fill="none" fill-rule="evenodd" sketch:type="MSPage">
        <g id="Desktop-HD" sketch:type="MSArtboardGroup" transform="translate(-759.000000, -300.000000)" fill="#FFFFFF">
            <g id="farm" sketch:type="MSLayerGroup" transform="translate(759.000000, 300.000000)">
                <g id="Capa_1" sketch:type="MSShapeGroup">
                    <g id="Group">
                        <path d="M195.847,2.938 C194.624,1.104 192.566,0.008 190.343,0 C188.155,0 186.077,1.104 184.839,2.938 C172.773,20.872 145.026,65.167 145.026,93.481 C145.026,129.663 165.335,158.999 190.342,158.999 C215.381,158.999 235.658,129.663 235.658,93.481 C235.66,65.166 207.933,20.881 195.847,2.938 L195.847,2.938 Z" id="Shape"></path>
                        <path d="M313.933,231.92 C333.949,211.9 345.648,160.971 349.785,139.752 C350.219,137.58 349.527,135.35 347.984,133.783 C346.406,132.22 344.183,131.537 342.011,131.963 C320.784,136.108 269.87,147.815 249.835,167.842 C224.249,193.42 217.862,228.518 235.562,246.209 C253.25,263.904 288.344,257.506 313.933,231.92 L313.933,231.92 Z" id="Shape"></path>
                        <path d="M378.332,284.572 C376.789,283.021 374.566,282.338 372.41,282.748 C347.691,287.455 281.312,302.1 255.695,327.717 C223.945,359.451 216.011,402.994 237.976,424.955 C259.925,446.904 303.472,438.971 335.206,407.221 C360.823,381.608 375.468,315.213 380.167,290.51 C380.586,288.353 379.894,286.127 378.332,284.572 L378.332,284.572 Z" id="Shape"></path>
                        <path d="M38.691,131.963 C36.535,131.537 34.296,132.221 32.738,133.783 C31.175,135.349 30.484,137.58 30.918,139.752 C35.055,160.971 46.77,211.9 66.789,231.92 C92.375,257.506 127.457,263.904 145.156,246.209 C162.859,228.518 156.453,193.42 130.867,167.842 C110.847,147.814 59.933,136.107 38.691,131.963 L38.691,131.963 Z" id="Shape"></path>
                        <path d="M8.308,282.748 C6.152,282.338 3.933,283.021 2.37,284.572 C0.811,286.127 0.136,288.353 0.554,290.51 C5.253,315.213 19.894,381.608 45.515,407.221 C77.249,438.971 120.792,446.905 142.742,424.955 C164.695,402.994 156.777,359.451 125.012,327.717 C99.406,302.1 33.011,287.455 8.308,282.748 L8.308,282.748 Z" id="Shape"></path>
                        <path d="M190.344,176.748 C181.254,176.748 173.867,184.127 173.867,193.228 L173.867,474.244 C173.867,483.346 181.254,490.721 190.344,490.721 C199.453,490.721 206.824,483.346 206.824,474.244 L206.824,193.229 C206.824,184.127 199.453,176.748 190.344,176.748 L190.344,176.748 Z" id="Shape"></path>
                    </g>
                </g>
            </g>
        </g>
    </g>
</svg>