<?xml version="1.0" encoding="UTF-8" standalone="no"?>
<svg width="150px" height="150px" viewBox="0 0 150 150" version="1.1" xmlns="http://www.w3.org/2000/svg" xmlns:xlink="http://www.w3.org/1999/xlink" xmlns:sketch="http://www.bohemiancoding.com/sketch/ns">
    <!-- Generator: Sketch 3.4.2 (15855) - http://www.bohemiancoding.com/sketch -->
    <title>high-five</title>
    <desc>Created with Sketch.</desc>
    <defs></defs>
    <g id="Page-1" stroke="none" stroke-width="1" fill="none" fill-rule="evenodd" sketch:type="MSPage">
        <g id="Desktop-HD" sketch:type="MSArtboardGroup" transform="translate(-89.000000, -44.000000)">
            <g id="high-five" sketch:type="MSLayerGroup" transform="translate(89.000000, 44.000000)">
                <rect id="Rectangle-27-Copy" fill="#FFFFFF" sketch:type="MSShapeGroup" x="0" y="0" width="150" height="150" rx="100"></rect>
                <circle id="Oval-3" fill="#EF4C60" sketch:type="MSShapeGroup" cx="75" cy="75" r="60"></circle>
                <g id="celebration19" transform="translate(35.000000, 40.000000)" fill="#FFFFFF" sketch:type="MSShapeGroup">
                    <g id="Capa_1">
                        <g id="Group">
                            <path d="M18.0838911,21.1291829 C22.5290272,21.1291829 26.145214,17.511751 26.145214,13.0653696 C26.145214,8.61914397 22.5290272,5.00171206 18.0838911,5.00171206 C13.6376654,5.00171206 10.0203891,8.61898833 10.0203891,13.0653696 C10.0205447,17.511751 13.6376654,21.1291829 18.0838911,21.1291829 L18.0838911,21.1291829 Z" id="Shape"></path>
                            <path d="M36.5055253,12.4 C35.6333074,12.4 34.8029572,12.7293385 34.1673152,13.3274708 L31.0494942,16.2621012 C30.4343969,16.8409339 29.2828016,17.7648249 28.5850584,18.2392218 L22.3125292,22.5021012 L12.9226459,22.5021012 C11.3355642,22.5021012 10.5128405,22.9685603 9.86194553,23.7819455 L5.77509728,28.8873152 C5.1140856,29.7129961 4.06225681,31.0851362 3.43050584,31.9463035 L0.661322957,35.7224903 C0.12233463,36.4575875 -0.0982101167,37.3585992 0.0404669261,38.2594553 C0.179143969,39.1603113 0.660077821,39.9533074 1.39501946,40.4922957 C1.98459144,40.9245136 2.68155642,41.1529961 3.41058366,41.1529961 C4.49478599,41.1529961 5.52435798,40.6315953 6.16466926,39.7585992 L8.93400778,35.9824125 C8.94879377,35.9623346 8.9648249,35.9405447 8.98007782,35.9198444 L8.39470817,42.4610117 L3.60498054,65.2090272 C3.40700389,66.1492607 3.58692607,67.1105058 4.11190661,67.9153307 C4.63688716,68.7203113 5.44404669,69.2726848 6.38396887,69.4705058 C6.62894942,69.5223346 6.87953307,69.5486381 7.1288716,69.5486381 C8.81836576,69.5486381 10.2975875,68.3469261 10.64607,66.6913619 L15.128716,45.4029572 L16.2960311,45.4029572 L16.9361868,52.5886381 C17.0130739,53.4515175 17.0518288,54.9684047 17.019144,55.8348638 L16.6418677,65.8141634 C16.6056031,66.7744747 16.945214,67.6913619 17.5985992,68.3961089 C18.2519844,69.100856 19.1407004,69.5089494 20.1014786,69.5453696 C20.1475486,69.5470817 20.193463,69.5481712 20.2390661,69.5481712 C22.1805447,69.5481712 23.7587549,68.027393 23.8320623,66.08607 L24.2093385,56.1072374 C24.2535409,54.9403891 24.2070039,53.1143969 24.1031907,51.9500389 L23.1458366,41.2056031 C23.1431907,41.1766537 23.1371206,41.1484825 23.1340078,41.1195331 L24.1750973,29.4876265 L32.4211673,23.8834241 C33.40607,23.2141634 34.8580545,22.0494942 35.7266926,21.2320623 L38.8445136,18.2974319 C40.2146304,17.0076265 40.2801556,14.8438911 38.9906615,13.47393 C38.3487938,12.791284 37.4428016,12.4 36.5055253,12.4 L36.5055253,12.4 Z" id="Shape"></path>
                            <path d="M61.4703502,18.6389105 C65.9164202,18.6389105 69.5340078,15.0214786 69.5340078,10.5750973 C69.5340078,6.1288716 65.9165759,2.51143969 61.4703502,2.51143969 C57.0253696,2.51143969 53.4091829,6.12871595 53.4091829,10.5750973 C53.4091829,15.0214786 57.0255253,18.6389105 61.4703502,18.6389105 L61.4703502,18.6389105 Z" id="Shape"></path>
                            <path d="M73.7399222,37.2683268 C74.3803891,38.141323 75.4099611,38.6627237 76.4940078,38.6627237 C77.2231907,38.6627237 77.92,38.4342412 78.509572,38.0020233 C79.2445136,37.463035 79.7254475,36.6700389 79.8641245,35.7691829 C80.0028016,34.8683268 79.7822568,33.9673152 79.2432685,33.2322179 L76.4737743,29.4560311 C75.8428016,28.5959533 74.791284,27.2236576 74.1294942,26.3971984 L70.0423346,21.2916732 C69.3911284,20.4781323 68.6636576,20.0116732 67.3763424,20.0116732 L57.2420233,20.0116732 L50.9696498,15.7486381 C50.2197665,15.2393774 49.2415564,14.465214 48.8680156,14.1133074 L47.8803113,13.1836576 C47.2449805,12.5855253 46.4146304,12.2561868 45.5422568,12.2561868 C44.6048249,12.2561868 43.6988327,12.6474708 43.0566537,13.3296498 C42.4319066,13.993463 42.1031907,14.8607004 42.1307393,15.7716732 C42.1584436,16.6828016 42.539144,17.5284047 43.2028016,18.1531518 L44.1901946,19.0823346 C44.8642802,19.7171984 46.1294942,20.7105058 47.1330739,21.3928405 L55.3789883,26.9967315 L56.4200778,38.6280156 C56.4168093,38.6572763 56.4107393,38.6852918 56.408249,38.7147082 L55.4508949,49.4589883 C55.3101946,51.0342412 55.6426459,53.2403113 56.2414008,54.7045914 L59.1014786,61.7021012 C59.656965,63.061323 60.9648249,63.9396109 62.4329961,63.9396109 C62.9000778,63.9396109 63.3575097,63.8493385 63.7928405,63.6711284 C64.6824903,63.3077043 65.3771206,62.6194553 65.7491051,61.7332296 C66.1210895,60.8471595 66.1256031,59.8691051 65.7620233,58.9799222 L62.9016342,51.9816342 C62.7354086,51.574786 62.5788327,50.5360311 62.6178988,50.0977432 L63.2582101,42.9120623 L64.4253696,42.9120623 L66.1315175,51.0136965 C66.4471595,52.5119066 67.3799222,53.7875486 68.6901167,54.513463 C69.4456031,54.9322957 70.3075486,55.1536187 71.1825681,55.1536187 C71.8068482,55.1536187 72.423035,55.0437354 73.0143191,54.8269261 L76.7810117,53.446537 C78.6437354,52.7637354 79.6038911,50.6932296 78.9212451,48.8306615 C78.4038911,47.4185214 77.0463813,46.4697276 75.5431907,46.4697276 C75.1212451,46.4697276 74.7045914,46.5439689 74.305214,46.690428 L72.6985214,47.2792218 L71.1592218,39.9710506 L70.52607,32.8946304 C70.6893385,33.111751 70.8409339,33.3153307 70.9701167,33.4916732 L73.7399222,37.2683268 L73.7399222,37.2683268 Z" id="Shape"></path>
                            <path d="M43.9839689,7.24809339 C44.0801556,7.27252918 44.1766537,7.28420233 44.271751,7.28420233 C44.7931518,7.28420233 45.2683268,6.93214008 45.4023346,6.40342412 C45.7772763,4.92466926 46.7190661,2.67906615 47.5120623,2.30894942 C48.0961868,2.03642023 48.3487938,1.34178988 48.0761089,0.757509728 C47.8037354,0.173385214 47.1091051,-0.0795330739 46.5246693,0.193463035 C44.4129183,1.17898833 43.3341634,5.06132296 43.1394553,5.82972763 C42.9807004,6.45478599 43.3589105,7.08980545 43.9839689,7.24809339 L43.9839689,7.24809339 Z" id="Shape"></path>
                            <path d="M38.5967315,4.18365759 C38.0127626,3.9111284 37.3179767,4.16357977 37.0451362,4.74785992 C36.772607,5.33214008 37.025214,6.02677043 37.6093385,6.29945525 C38.3982879,6.66754864 39.3416342,8.91424125 39.7193774,10.3945525 C39.8536965,10.9229572 40.3285603,11.2745525 40.8498054,11.2745525 C40.9447471,11.2745525 41.0412451,11.2628794 41.1375875,11.2384436 C41.7626459,11.08 42.1407004,10.4449805 41.9822568,9.82023346 C41.787393,9.05167315 40.7087938,5.16933852 38.5967315,4.18365759 L38.5967315,4.18365759 Z" id="Shape"></path>
                        </g>
                    </g>
                </g>
            </g>
        </g>
    </g>
</svg>