<?xml version="1.0" encoding="UTF-8" standalone="no"?>
<svg width="214px" height="288px" viewBox="0 0 214 288" version="1.1" xmlns="http://www.w3.org/2000/svg" xmlns:xlink="http://www.w3.org/1999/xlink" xmlns:sketch="http://www.bohemiancoding.com/sketch/ns">
    <!-- Generator: Sketch 3.4.2 (15855) - http://www.bohemiancoding.com/sketch -->
    <title>lighthouse</title>
    <desc>Created with Sketch.</desc>
    <defs></defs>
    <g id="Page-1" stroke="none" stroke-width="1" fill="none" fill-rule="evenodd" sketch:type="MSPage">
        <g id="Desktop-HD" sketch:type="MSArtboardGroup" transform="translate(-527.000000, -197.000000)" fill="#FFFFFF">
            <g id="lighthouse" sketch:type="MSLayerGroup" transform="translate(527.000000, 197.000000)">
                <g id="Capa_1" sketch:type="MSShapeGroup">
                    <path d="M28.609,186.235 L39.687,97 L110.147,97 L114.557,132.522 L28.609,186.235 L28.609,186.235 Z M141.917,273 L131.928,273 C131.929,272.944 131.936,272.889 131.936,272.833 C131.936,272.326 131.886,271.83 131.79,271.352 L119.323,170.923 L23.538,230.784 C23.378,230.884 23.21,230.959 23.046,231.045 L17.973,271.91 C17.928,272.275 17.919,272.639 17.928,273.001 L7.916,273.001 C3.773,273.001 0.416,276.358 0.416,280.501 C0.416,284.644 3.773,288.001 7.916,288.001 L141.916,288.001 C146.059,288.001 149.416,284.644 149.416,280.501 C149.416,276.358 146.059,273 141.917,273 L141.917,273 Z M111.917,69 L106.672,69 L105.112,57 L80.25,57 C79.514,57 78.812,56.601 78.174,56.331 C77.536,56.061 76.961,55.546 76.479,55.063 C75.755,54.339 75.072,53.346 74.859,52.304 C74.788,51.957 74.584,51.566 74.584,51.198 L74.584,51.167 L74.584,45.334 L74.584,45.334 C74.584,44.966 74.788,44.606 74.859,44.259 C75.214,42.523 76.496,41.094 78.091,40.42 C78.729,40.15 79.514,40.001 80.25,40.001 L103.052,40.001 L101.854,30.403 C104.536,29.26 106.416,26.601 106.416,23.501 C106.416,19.56 103.375,16.336 99.513,16.031 C96.209,6.539 87.152,0 76.705,0 L73.129,0 C62.692,0 53.644,6.526 50.332,16 L49.917,16 C45.774,16 42.417,19.357 42.417,23.5 C42.417,26.957 44.758,29.859 47.939,30.728 L43.163,69 L36.917,69 C32.774,69 29.417,72.357 29.417,76.5 C29.417,78.676 30.349,80.63 31.83,82 L117.004,82 C118.484,80.63 119.417,78.676 119.417,76.5 C119.417,72.357 116.059,69 111.917,69 L111.917,69 Z M211.068,26.451 C209.369,25.024 207.207,24.425 205.024,24.813 L113.066,41.115 C109.485,41.75 106.895,44.862 106.895,48.5 C106.895,52.138 109.516,55.25 113.097,55.885 L205.102,72.187 C205.538,72.264 205.978,72.302 206.413,72.302 C208.161,72.302 209.706,71.691 211.066,70.549 C212.766,69.124 213.582,67.02 213.582,64.802 L213.582,32.198 C213.583,29.98 212.769,27.876 211.068,26.451 L211.068,26.451 Z" id="Shape"></path>
                </g>
            </g>
        </g>
    </g>
</svg>