<?xml version="1.0" encoding="UTF-8" standalone="no"?>
<svg width="612px" height="316px" viewBox="0 0 612 316" version="1.1" xmlns="http://www.w3.org/2000/svg" xmlns:xlink="http://www.w3.org/1999/xlink" xmlns:sketch="http://www.bohemiancoding.com/sketch/ns">
    <!-- Generator: Sketch 3.4.2 (15855) - http://www.bohemiancoding.com/sketch -->
    <title>ocean</title>
    <desc>Created with Sketch.</desc>
    <defs></defs>
    <g id="Page-1" stroke="none" stroke-width="1" fill="none" fill-rule="evenodd" sketch:type="MSPage">
        <g id="Desktop-HD" sketch:type="MSArtboardGroup" transform="translate(-83.000000, -419.000000)" fill="#FFFFFF">
            <g id="ocean" sketch:type="MSLayerGroup" transform="translate(83.000000, 419.000000)">
                <g id="Capa_1" sketch:type="MSShapeGroup">
                    <g id="Group">
                        <path d="M16.483,145.276 C48.248,145.276 76.719,138.05 102.199,123.409 C127.672,108.703 147.455,88.306 161.54,62.22 C175.626,88.306 195.37,108.766 220.581,123.409 C246.022,138.115 274.232,145.276 305.696,145.276 L306.297,145.276 C337.768,145.276 365.94,138.05 391.418,123.409 C416.891,108.703 436.674,88.306 450.459,62.22 C464.545,88.306 484.628,108.703 510.101,123.409 C535.575,138.051 564.046,145.276 595.516,145.276 C604.806,145.276 611.999,137.795 611.999,128.46 C611.999,119.189 604.806,112.028 595.516,112.028 C563.745,112.028 536.175,103.012 512.799,85.046 C489.423,67.015 474.135,42.783 467.243,12.476 L466.641,11.901 C466.641,11.326 466.34,10.686 465.74,10.111 C465.74,9.791 465.145,9.216 465.145,8.896 C465.145,8.576 464.844,8.001 464.543,7.681 L463.341,6.53 C463.341,5.635 463.047,5.315 462.146,5.315 C462.146,4.995 461.845,4.42 461.544,4.1 L459.747,2.885 L458.545,1.99 C458.251,1.99 457.65,1.415 457.349,1.415 C457.048,1.095 456.448,0.84 455.552,0.84 L454.951,0.201 L454.349,0.201 L452.252,0.201 L450.455,0.201 L449.253,0.201 L447.456,0.201 L446.855,0.201 L446.259,0.84 C445.358,0.84 444.756,1.096 444.456,1.415 C444.155,1.415 443.561,1.735 443.26,1.99 C442.96,1.99 441.757,2.885 441.463,2.885 C441.463,3.205 441.163,3.524 440.862,3.524 L439.96,4.099 L438.764,5.314 L438.163,6.529 L436.961,7.68 L436.366,8.895 C436.065,9.215 435.764,9.79 435.764,10.11 C435.464,10.366 435.163,11.005 435.163,11.9 C434.862,11.9 434.561,12.22 434.561,12.475 C427.075,42.782 411.787,67.015 388.711,85.045 C365.629,103.012 338.059,112.027 306.288,112.027 C274.223,112.027 246.595,103.076 223.27,85.045 C200.137,67.142 184.907,42.782 177.413,12.475 L177.413,11.9 C177.112,11.58 176.818,11.005 176.818,10.11 C176.517,9.79 176.217,9.215 176.217,8.895 L175.015,7.68 C175.015,7.424 174.714,6.785 174.42,6.529 L173.218,5.314 L172.022,4.099 L170.519,2.884 C170.218,2.884 169.624,2.628 169.323,1.989 C169.022,1.989 167.82,1.414 167.52,1.414 C167.226,1.094 166.625,0.839 166.324,0.839 C166.023,0.839 165.422,0.2 165.122,0.2 L164.527,0.2 L162.724,0.2 L161.528,0.2 L159.731,0.2 L157.634,0.2 L157.033,0.2 L156.432,0.839 C155.53,0.839 154.936,1.095 154.635,1.414 L153.433,1.989 C153.132,1.989 152.538,2.884 152.237,2.884 L151.035,4.099 C150.14,4.099 149.839,4.419 149.839,5.314 L148.637,6.529 L147.441,7.68 L146.84,8.895 C146.84,9.47 145.344,10.685 145.344,11.9 L145.344,12.475 C137.85,42.782 122.512,66.951 99.187,85.045 C76.054,102.948 48.535,112.027 16.47,112.027 C7.193,112.028 0,119.189 0,128.459 C0,137.794 7.193,145.276 16.483,145.276 L16.483,145.276 Z" id="Shape"></path>
                        <path d="M595.517,282.551 C563.746,282.551 536.106,273.664 512.8,255.57 C489.347,237.347 474.136,213.306 467.244,183.32 C467.244,183 466.642,182.424 466.642,182.105 C466.642,181.209 466.341,180.633 465.741,180.058 L465.146,178.843 C465.146,178.524 464.544,177.948 464.544,177.628 L463.342,176.413 C463.342,175.518 463.048,175.262 462.147,175.262 C462.147,174.943 461.545,174.367 461.545,174.047 C461.245,174.047 460.049,173.408 459.748,173.408 L458.546,172.257 C457.951,172.257 456.749,171.042 455.554,171.042 L454.953,171.042 L454.351,171.042 C454.05,170.722 453.156,170.467 452.254,170.467 L450.457,170.467 L449.255,170.467 C448.36,170.467 447.759,170.723 447.458,171.042 L446.857,171.042 L446.261,171.042 C445.96,171.042 444.758,171.617 444.458,171.617 C444.158,171.617 443.563,171.937 443.262,172.256 L441.465,173.407 L439.962,174.046 L438.766,175.261 L438.165,176.412 L436.963,177.627 C436.963,177.947 436.368,178.523 436.368,178.842 C436.067,179.162 435.766,179.738 435.766,180.057 C435.466,180.314 435.165,181.208 435.165,182.104 C434.865,182.423 434.564,182.999 434.564,183.319 C427.077,213.626 411.732,237.474 388.413,255.569 C365.28,273.471 337.761,282.55 306.29,282.55 C274.225,282.55 246.597,273.599 223.272,255.569 C200.139,237.666 184.909,213.625 177.415,183.319 L177.415,182.104 C177.114,181.847 176.82,180.953 176.82,180.057 C176.519,180.057 176.219,179.738 176.219,178.842 L175.017,177.627 C175.017,177.307 174.716,176.732 174.422,176.412 L173.22,175.261 L172.024,174.046 C171.723,174.046 170.822,173.407 170.521,173.407 L169.325,172.256 C169.024,172.256 167.822,171.617 167.522,171.617 C167.228,171.617 166.627,171.361 166.326,171.042 L165.124,171.042 L164.529,170.467 L162.726,170.467 L161.53,170.467 L159.733,170.467 L157.636,170.467 C157.636,170.723 157.335,171.042 157.035,171.042 L156.434,171.042 C156.133,171.042 154.938,171.617 154.637,171.617 L153.435,172.256 L152.239,173.407 C151.938,173.407 151.337,173.727 151.037,174.046 L149.841,175.261 L148.639,176.412 L147.443,177.627 C147.443,177.947 147.142,178.523 146.842,178.842 C146.842,179.162 146.541,179.738 145.94,180.057 C145.94,180.314 145.345,181.847 145.345,182.104 L145.345,183.319 C137.851,213.626 122.513,237.474 99.188,255.569 C76.059,273.471 48.54,282.55 16.475,282.55 C7.193,282.551 0,290.033 0,299.303 C0,308.638 7.193,315.799 16.483,315.799 C47.954,315.799 76.425,308.638 101.898,293.932 C127.371,279.226 147.454,258.83 161.54,233.064 C175.626,258.831 195.37,279.292 220.581,293.932 C246.022,308.703 274.232,315.799 305.696,315.799 L306.297,315.799 C337.768,315.799 366.239,308.638 391.712,293.932 C417.191,279.226 436.674,258.83 450.459,233.064 C464.545,259.151 484.327,279.228 509.8,293.932 C535.274,308.637 564.045,315.799 595.516,315.799 C604.806,315.799 611.999,308.638 611.999,299.303 C612,290.033 604.807,282.551 595.517,282.551 L595.517,282.551 Z" id="Shape"></path>
                    </g>
                </g>
            </g>
        </g>
    </g>
</svg>