<?xml version="1.0" encoding="UTF-8" standalone="no"?>
<svg width="150px" height="150px" viewBox="0 0 150 150" version="1.1" xmlns="http://www.w3.org/2000/svg" xmlns:xlink="http://www.w3.org/1999/xlink" xmlns:sketch="http://www.bohemiancoding.com/sketch/ns">
    <!-- Generator: Sketch 3.4.2 (15855) - http://www.bohemiancoding.com/sketch -->
    <title>outdoors</title>
    <desc>Created with Sketch.</desc>
    <defs></defs>
    <g id="Page-1" stroke="none" stroke-width="1" fill="none" fill-rule="evenodd" sketch:type="MSPage">
        <g id="Desktop-HD" sketch:type="MSArtboardGroup" transform="translate(-304.000000, -44.000000)">
            <g id="outdoors" sketch:type="MSLayerGroup" transform="translate(304.000000, 44.000000)">
                <rect id="Rectangle-27" fill="#FFFFFF" sketch:type="MSShapeGroup" x="0" y="0" width="150" height="150" rx="100"></rect>
                <g transform="translate(15.000000, 15.000000)" sketch:type="MSShapeGroup">
                    <circle id="Oval-2" fill="#6B5792" cx="60" cy="60" r="60"></circle>
                    <g transform="translate(19.371429, 17.828571)" id="Capa_1" fill="#FFFFFF">
                        <g>
                            <g id="Group">
                                <path d="M54.09,66.8175429 C53.3604,66.0977143 52.3752,65.6945143 51.3514286,65.6945143 L47.9019429,65.6945143 L47.9019429,63.4633714 L50.7980571,63.4633714 C51.7280571,63.4633714 52.4823429,62.7092571 52.4823429,61.7789143 L52.4823429,59.5755429 C52.4823429,58.6453714 51.7280571,57.8910857 50.7980571,57.8910857 L47.9019429,57.8910857 L47.9019429,55.008 L50.7980571,55.008 C51.7280571,55.008 52.4823429,54.2537143 52.4823429,53.3235429 L52.4823429,51.12 C52.4823429,50.1898286 51.7280571,49.4357143 50.7980571,49.4357143 L47.9019429,49.4357143 L47.9019429,47.2572 C47.9019429,45.7002857 46.6417714,44.4385714 45.084,44.4385714 C43.5262286,44.4385714 42.2653714,45.7002857 42.2653714,47.2572 L42.2653714,49.4357143 L16.8977143,49.4357143 L16.8977143,47.2572 C16.8977143,45.7002857 15.6375429,44.4385714 14.0797714,44.4385714 C12.5218286,44.4385714 11.2611429,45.7002857 11.2611429,47.2572 L11.2611429,49.4357143 L8.36485714,49.4357143 C7.43502857,49.4357143 6.68074286,50.1898286 6.68074286,51.12 L6.68074286,53.3235429 C6.68074286,54.2537143 7.43502857,55.008 8.36485714,55.008 L11.2611429,55.008 L11.2611429,57.8910857 L8.36485714,57.8910857 C7.43502857,57.8910857 6.68074286,58.6453714 6.68074286,59.5755429 L6.68074286,61.7789143 C6.68074286,62.7092571 7.43502857,63.4633714 8.36485714,63.4633714 L11.2611429,63.4633714 L11.2611429,65.6945143 L7.80942857,65.6945143 C6.78565714,65.6945143 5.79977143,66.0977143 5.07034286,66.8175429 L0.677657143,71.1498857 C0.192857143,71.6290286 0.0442285714,72.3553714 0.303257143,72.9886286 C0.5616,73.6205143 1.1784,74.0331429 1.8612,74.0331429 L5.62354286,74.0331429 L5.62354286,81.0795429 C5.62354286,82.6359429 6.88422857,83.8981714 8.44217143,83.8981714 C9.99994286,83.8981714 11.2608,82.6359429 11.2608,81.0795429 L11.2608,74.0331429 L47.9017714,74.0331429 L47.9017714,81.0795429 C47.9017714,82.6359429 49.1624571,83.8981714 50.7204,83.8981714 C52.2783429,83.8981714 53.5390286,82.6359429 53.5390286,81.0795429 L53.5390286,74.0331429 L57.2988,74.0331429 C57.9819429,74.0331429 58.5982286,73.6205143 58.8574286,72.9886286 C59.1157714,72.3555429 58.9673143,71.6290286 58.4828571,71.1498857 L54.09,66.8175429 L54.09,66.8175429 Z M16.8977143,55.0078286 L42.2653714,55.0078286 L42.2653714,57.8909143 L16.8977143,57.8909143 L16.8977143,55.0078286 L16.8977143,55.0078286 Z M16.8977143,63.4635429 L42.2653714,63.4635429 L42.2653714,65.6946857 L16.8977143,65.6946857 L16.8977143,63.4635429 L16.8977143,63.4635429 Z" id="Shape"></path>
                                <path d="M16.5425143,0.252 C16.5425143,0.246514286 16.5378857,0.240857143 16.5320571,0.240857143 L1.68788571,0.240857143 C0.7572,0.240857143 0.00274285714,0.995314286 0.00274285714,1.92565714 L0.00274285714,16.536 C0.00274285714,16.5440571 0,16.5497143 0,16.5634286 C0.0690857143,16.5634286 0.138171429,16.5828 0.212057143,16.5828 C9.2292,16.5828 16.5425143,9.27205714 16.5425143,0.252 L16.5425143,0.252 Z" id="Shape"></path>
                                <path d="M0.575657143,21.2398286 L0.575657143,35.0079429 C0.575657143,36.1752 1.52262857,37.122 2.68954286,37.122 C3.85662857,37.122 4.8036,36.1752 4.8036,35.0079429 L4.8036,21.2398286 C4.8036,20.0729143 3.85662857,19.1261143 2.68954286,19.1261143 C1.52262857,19.1261143 0.575657143,20.0729143 0.575657143,21.2398286 L0.575657143,21.2398286 Z" id="Shape"></path>
                                <path d="M10.8726857,16.9323429 C9.86262857,17.5157143 9.516,18.8079429 10.0988571,19.8198857 L16.9861714,31.7465143 C17.3772,32.4248571 18.0874286,32.8035429 18.8189143,32.8035429 C19.1768571,32.8035429 19.5401143,32.7126857 19.8732,32.52 C20.8839429,31.9364571 21.2305714,30.6438857 20.6470286,29.6324571 L13.7597143,17.7058286 C13.1766857,16.6971429 11.8884,16.3448571 10.8726857,16.9323429 L10.8726857,16.9323429 Z" id="Shape"></path>
                                <path d="M17.6384571,13.8272571 L29.5652571,20.7142286 C29.8981714,20.9069143 30.2617714,20.9977714 30.6195429,20.9977714 C31.3512,20.9977714 32.0612571,20.6190857 32.4522857,19.9407429 C33.036,18.9293143 32.6892,17.6370857 31.6791429,17.0532 L19.7521714,10.1664 C18.7395429,9.57874286 17.4454286,9.92982857 16.8651429,10.9402286 C16.2814286,11.9514857 16.6282286,13.2438857 17.6384571,13.8272571 L17.6384571,13.8272571 Z" id="Shape"></path>
                                <path d="M21.1728,4.87337143 L34.9436571,4.87062857 C36.1105714,4.87062857 37.0577143,3.92382857 37.0577143,2.75691429 C37.0577143,1.58845714 36.1105714,0.642857143 34.9436571,0.642857143 L21.1728,0.645771429 C20.0058857,0.645771429 19.0587429,1.59257143 19.0587429,2.75965714 C19.0587429,3.92811429 20.0058857,4.87337143 21.1728,4.87337143 L21.1728,4.87337143 Z" id="Shape"></path>
                                <path d="M75.3312,0.162514286 C71.7802286,0.162514286 68.7142286,4.59017143 67.2253714,11.0240571 C72.1685143,12.8504571 75.8129143,18.6276 76.2258857,25.8999429 C79.0743429,27.5004 81.0841714,30.3162857 81.786,33.6053143 C83.4020571,30.0576 84.4037143,25.1869714 84.4037143,19.8073714 C84.4035429,8.95817143 80.3405143,0.162514286 75.3312,0.162514286 L75.3312,0.162514286 Z" id="Shape"></path>
                                <path d="M72.5124,68.4142286 C72.5124,69.3444 73.2668571,70.0985143 74.1966857,70.0985143 L76.4646857,70.0985143 C77.3953714,70.0985143 78.1496571,69.3444 78.1496571,68.4142286 L78.1496571,45.0022286 C76.5809143,46.4156571 74.6513143,47.3653714 72.5122286,47.6806286 L72.5122286,68.4142286 L72.5124,68.4142286 Z" id="Shape"></path>
                                <path d="M73.4154857,27.7263429 C73.4182286,27.5792571 73.446,27.4400571 73.446,27.2914286 C73.446,19.4989714 69.1873714,13.182 63.9327429,13.182 C58.6789714,13.182 54.4205143,19.4989714 54.4205143,27.2914286 C54.4205143,29.1234857 54.6738857,30.8614286 55.1029714,32.4673714 C52.7768571,33.936 51.2494286,36.3665143 51.2494286,39.1273714 C51.2494286,43.6165714 55.2709714,47.2570286 60.234,47.2570286 C60.4510286,47.2570286 60.6521143,47.2030286 60.8667429,47.1879429 L60.8667429,68.4142286 C60.8667429,69.3444 61.6210286,70.0985143 62.5510286,70.0985143 L67.5334286,70.0985143 C68.4634286,70.0985143 69.2177143,69.3444 69.2177143,68.4142286 L69.2177143,44.7905143 C69.7849714,44.9321143 70.3707429,45.0258857 70.9793143,45.0258857 C75.5514857,45.0258857 79.2586286,41.0554286 79.2586286,36.1585714 C79.2588,32.1771429 76.7902286,28.8466286 73.4154857,27.7263429 L73.4154857,27.7263429 Z" id="Shape"></path>
                            </g>
                        </g>
                    </g>
                </g>
            </g>
        </g>
    </g>
</svg>