<?xml version="1.0" encoding="UTF-8" standalone="no"?>
<svg width="150px" height="150px" viewBox="0 0 150 150" version="1.1" xmlns="http://www.w3.org/2000/svg" xmlns:xlink="http://www.w3.org/1999/xlink" xmlns:sketch="http://www.bohemiancoding.com/sketch/ns">
    <!-- Generator: Sketch 3.4.2 (15855) - http://www.bohemiancoding.com/sketch -->
    <title>thumbs-up</title>
    <desc>Created with Sketch.</desc>
    <defs></defs>
    <g id="Page-1" stroke="none" stroke-width="1" fill="none" fill-rule="evenodd" sketch:type="MSPage">
        <g id="Desktop-HD" sketch:type="MSArtboardGroup" transform="translate(-267.000000, -287.000000)">
            <g id="thumbs-up" sketch:type="MSLayerGroup" transform="translate(267.000000, 287.000000)">
                <g id="Rectangle-27-Copy-2-+-Oval-3-Copy-Copy" sketch:type="MSShapeGroup">
                    <rect id="Rectangle-27-Copy-2" fill="#FFFFFF" x="0" y="0" width="150" height="150" rx="100"></rect>
                    <circle id="Oval-3-Copy" fill="#FBB450" cx="75" cy="75" r="60"></circle>
                </g>
                <g id="like82" transform="translate(35.000000, 26.000000)" fill="#FFFFFF" sketch:type="MSShapeGroup">
                    <g id="Capa_1">
                        <g id="Like_2">
                            <path d="M72.4562963,49.4737037 C76.2877778,49.6485185 79.5381481,46.6303704 79.7059259,42.7318519 C79.8737037,38.8333333 77.1796296,35.3285185 73.3451852,35.16 L47.8896296,31.9637037 C47.8896296,31.9637037 53.1944444,23.0903704 53.1944444,9.94333333 C53.1944444,1.17925926 46.9333333,0 43.2511111,0 C40.3544444,-0.00111111111 39.5744444,5.61148148 39.5744444,5.61148148 L39.5685185,5.61148148 C38.9125926,9.21037037 38.0585185,12.3533333 35.0907407,18.14 C31.7685185,24.6259259 27.2440741,24.0174074 21.9618519,29.7944444 C21.0296296,30.8118519 19.777037,32.4911111 18.5562963,34.5574074 C18.4566667,34.6666667 18.3637037,34.8196296 18.2737037,35.0348148 C18.1648148,35.2911111 18.0344444,35.4688889 17.9196296,35.7059259 C17.7174074,36.0774074 17.5185185,36.4488889 17.322963,36.8388889 C14.0537037,40.1081481 8.96037037,39.7740741 6.79148148,39.7740741 C2.44111111,39.7740741 0.162592593,42.3018519 0.162592593,46.402963 L0.161111111,76.7096296 C0.161111111,81.3107407 2.0437037,82.8625926 6.79185185,82.8625926 L13.4207407,82.8625926 C16.7581481,82.8625926 19.3714815,84.7759259 23.3644444,86.177037 C28.8337037,88.0718519 37.0018519,89.4940741 51.0722222,89.4940741 C53.532963,89.4940741 61.1651852,89.5033333 61.1651852,89.5033333 C63.5018519,89.5033333 65.3788889,88.4359259 66.7333333,87.147037 C67.2488889,86.657037 67.7866667,85.9451852 68.0166667,84.5562963 C68.0540741,84.3411111 68.0940741,83.4388889 68.0881481,83.317037 C68.2648148,79.3437037 65.862963,77.9051852 64.5022222,77.4522222 C64.5392593,77.4396296 64.5148148,77.4055556 64.5888889,77.4085185 L68.9085185,77.6018519 C72.742963,77.7766667 76.5277778,75.0144444 76.5277778,70.317037 C76.5277778,66.4218519 73.3703704,63.6748148 69.5485185,63.4877778 L71.8388889,63.5940741 C75.672963,63.7625926 78.9140741,60.7444444 79.0914815,56.8459259 C79.2585185,52.9477778 76.2877778,49.6488889 72.4562963,49.4737037 L72.4562963,49.4737037 Z" id="Shape"></path>
                        </g>
                    </g>
                </g>
            </g>
        </g>
    </g>
</svg>