<?xml version="1.0" encoding="UTF-8" standalone="no"?>
<svg width="101px" height="100px" viewBox="0 0 101 100" version="1.1" xmlns="http://www.w3.org/2000/svg" xmlns:xlink="http://www.w3.org/1999/xlink" xmlns:sketch="http://www.bohemiancoding.com/sketch/ns">
    <!-- Generator: Sketch 3.4.2 (15855) - http://www.bohemiancoding.com/sketch -->
    <title>Logo</title>
    <desc>Created with Sketch.</desc>
    <defs></defs>
    <g id="Page-1" stroke="none" stroke-width="1" fill="none" fill-rule="evenodd" sketch:type="MSPage">
        <g id="Desktop-HD-Copy" sketch:type="MSArtboardGroup" transform="translate(-30.000000, -30.000000)" fill="#FFFFFF">
            <g id="navbar-sticky" sketch:type="MSLayerGroup">
                <g id="navbar" transform="translate(30.000000, 30.000000)" sketch:type="MSShapeGroup">
                    <g id="Logo">
                        <g id="tree">
                            <path d="M3.51588542,37.9864583 C3.12760417,37.1729167 2.71484375,36.3270833 2.30234375,35.4598958 C1.25989583,38.8674479 0.570572917,42.4289063 0.276822917,46.1023438 C3.06640625,46.2838542 5.8515625,46.528125 8.63072917,46.8257813 C6.71067708,44.0109375 4.98541667,41.0638021 3.51588542,37.9864583" id="Fill-34"></path>
                            <path d="M7.87161458,56.0182292 C7.87161458,56.0182292 10.2507812,55.2776042 11.9072917,56.3458333 C13.5638021,57.4143229 13.8703125,59.8872396 13.8703125,59.8872396 C13.8703125,59.8872396 11.4911458,60.628125 9.83463542,59.559375 C8.178125,58.4911458 7.87161458,56.0182292 7.87161458,56.0182292 M5.79427083,53.0822917 C4.34791667,54.421875 1.8765625,54.1052083 1.8765625,54.1052083 C1.8765625,54.1052083 1.74947917,51.6164062 3.1953125,50.2770833 C4.64140625,48.9372396 7.11302083,49.2541667 7.11302083,49.2541667 C7.11302083,49.2541667 7.24036458,51.7429687 5.79427083,53.0822917 M19.7716146,59.1190104 C16.1809896,56.3059896 13.0518229,52.8739583 10.33125,49.2231771 L10.2773437,49.2197917 C7.08151042,48.7315104 3.87239583,48.365625 0.66328125,47.9841146 C0.51328125,47.9661458 0.34453125,47.9544271 0.165104167,47.9447917 C0.133333333,48.6760417 0.1140625,49.4101562 0.1140625,50.1489583 C0.1140625,54.8981771 0.774739583,59.4929687 2.00833333,63.8471354 C5.2125,62.71875 8.75520833,62.2403646 12.0041667,61.3153646 C14.5916667,60.5786458 17.1791667,59.8375 19.7716146,59.1190104" id="Fill-35"></path>
                            <path d="M10.3309896,68.2549479 C9.35130208,69.965625 6.89817708,70.4020833 6.89817708,70.4020833 C6.89817708,70.4020833 6.0328125,68.0651042 7.0125,66.3549479 C7.99166667,64.6440104 10.4450521,64.2075521 10.4450521,64.2075521 C10.4450521,64.2075521 11.3104167,66.5442708 10.3309896,68.2549479 M22.3390625,60.7403646 C18.7463542,61.4151042 15.1622396,62.1263021 11.5822917,62.8716146 C8.57005208,63.4994792 5.3640625,64.4320312 2.24375,64.640625 C7.95026042,83.5742187 24.5458333,97.784375 44.7520833,99.9924479 C45.4963542,89.7289062 46.7195313,72.8822917 46.7588542,72.4658854 C41.4882813,69.5005208 34.4981771,65.8630208 28.9752604,63.4382812 C26.9195313,62.5351562 24.4747396,61.8013021 22.3390625,60.7403646" id="Fill-36"></path>
                            <path d="M12.2778646,32.4546875 C13.9283854,31.3778646 16.3114583,32.10625 16.3114583,32.10625 C16.3114583,32.10625 16.0179687,34.5807292 14.3669271,35.6575521 C12.7158854,36.7346354 10.3328125,36.00625 10.3328125,36.00625 C10.3328125,36.00625 10.6265625,33.5317708 12.2778646,32.4546875 M20.8023437,17.721875 C22.4890625,18.7421875 22.8664062,21.2054688 22.8664062,21.2054688 C22.8664062,21.2054688 20.509375,22.0138021 18.8226562,20.9934896 C17.1364583,19.9731771 16.7591146,17.5098958 16.7591146,17.5098958 C16.7591146,17.5098958 19.1161458,16.7013021 20.8023437,17.721875 M25.5869792,31.4960938 C25.5869792,31.4960938 26.1851562,33.9148438 25.0200521,35.5049479 C23.8549479,37.0953125 21.3682292,37.2541667 21.3682292,37.2541667 C21.3682292,37.2541667 20.7703125,34.8354167 21.9354167,33.2450521 C23.1,31.6549479 25.5869792,31.4960938 25.5869792,31.4960938 M27.7742187,46.4307292 C27.7742187,46.4307292 27.1385417,48.8401042 25.3536458,49.6763021 C23.5684896,50.5127604 21.3104167,49.4588542 21.3104167,49.4588542 C21.3104167,49.4588542 21.9460937,47.0497396 23.73125,46.2135417 C25.5161458,45.3773438 27.7742187,46.4307292 27.7742187,46.4307292 M17.8911458,47.3408854 C17.8911458,47.3408854 15.3997396,47.29375 14.1643229,45.7578125 C12.9289062,44.2221354 13.4174479,41.7783854 13.4174479,41.7783854 C13.4174479,41.7783854 15.9085937,41.825 17.1440104,43.3611979 C18.3796875,44.8971354 17.8911458,47.3408854 17.8911458,47.3408854 M28.8989583,37.9294271 C28.8989583,37.9294271 31.3622396,37.5536458 32.8395833,38.8583333 C34.3177083,40.1630208 34.2497396,42.6539063 34.2497396,42.6539063 C34.2497396,42.6539063 31.7867187,43.0294271 30.3085937,41.7247396 C28.83125,40.4203125 28.8989583,37.9294271 28.8989583,37.9294271 M34.2229167,52.4895833 C35.9226562,53.4882813 36.3315104,55.9463542 36.3315104,55.9463542 C36.3315104,55.9463542 33.9851562,56.7848958 32.2854167,55.7861979 C30.5864583,54.7875 30.1773437,52.3296875 30.1773437,52.3296875 C30.1773437,52.3296875 32.5236979,51.490625 34.2229167,52.4895833 M7.24479167,40.8953125 C7.38489583,39.4473958 7.51901042,37.9986979 7.64609375,36.5489583 C7.93697917,33.215625 7.81223958,29.5296875 8.88515625,26.3398438 C8.96119792,26.1158854 9.3203125,26.0789063 9.37708333,26.3398438 C10.1554687,29.9098958 9.49010417,33.9184896 9.3046875,37.5453125 C9.20052083,39.5828125 9.09505208,41.6200521 9.00104167,43.6580729 C10.1565104,45.3908854 11.3815104,47.0776042 12.6963542,48.6869792 C14.0231771,50.3109375 15.4153646,51.9424479 16.9013021,53.4770833 C17.9114583,50.3838542 18.7541667,47.2328125 19.5067708,44.06875 C19.6820312,43.3315104 19.7231771,42.3390625 19.8401042,42.7953125 C19.6895833,42.2039063 19.5414062,41.6111979 19.4026042,41.0164063 C18.2703125,36.1638021 16.8703125,30.5645833 17.9179687,25.603125 C17.9786458,25.3143229 18.3549479,25.4223958 18.3875,25.6669271 C19.1247396,31.2039063 20.1835937,36.6765625 21.6567708,42.0671875 C21.9427083,43.1130208 21.4984375,44.2091146 21.2658854,45.2401042 C20.5015625,48.61875 19.7205729,51.9898438 18.8867187,55.3520833 L18.8736979,55.3875 C19.7643229,56.1984375 20.6854167,56.9695313 21.6505208,57.6721354 C24.3552083,59.6401042 28.3888021,60.6377604 31.434375,61.9710938 C35.4888021,63.7453125 39.6486979,65.4164063 43.6773437,67.3046875 C41.4882812,63.0416667 39.2820312,58.7864583 37.1359375,54.5020833 C36.2609375,52.7557292 35.3872396,51.0101563 34.5122396,49.2638021 C34.2458333,48.7335938 33.8200521,48.1182292 33.8869792,47.5041667 C34.1752604,44.8260417 34.4747396,42.15 34.775,39.4739583 C33.9703125,38.7669271 33.3515625,37.7773438 32.6502604,36.9877604 C31.3158854,35.4861979 29.9572917,34.0078125 28.6460937,32.4875 C27.4807292,31.1361979 26.7945312,30.3927083 26.2643229,28.7223958 C25.1117187,25.0911458 23.9791667,21.4518229 22.8973958,17.7986979 C22.134375,15.2221354 21.1580729,12.5161458 20.4997396,9.78802083 C12.6893229,15.5565104 6.6125,23.5364583 3.19583333,32.8049479 C4.03072917,34.8385417 4.8859375,36.8632813 5.96458333,38.7429688 C6.37994792,39.4658854 6.80989583,40.1817708 7.24479167,40.8953125" id="Fill-37"></path>
                            <path d="M91.9171875,46.821875 C94.6872396,46.5255208 97.4632813,46.28125 100.243229,46.1010417 C99.9520833,42.4539062 99.2697917,38.9171875 98.2398438,35.5317708 C97.6833333,36.6854167 97.1143229,37.7973958 96.5828125,38.8421875 C95.1828125,41.5924479 93.6507813,44.2729167 91.9171875,46.821875" id="Fill-38"></path>
                            <path d="M46.4489583,8.8125 C47.6981771,10.6611979 48.9848958,12.4919271 50.3536458,14.2559896 C50.7705729,13.5111979 51.1786458,12.7617188 51.5958333,12.0177083 C51.7731771,11.7018229 51.94375,11.3760417 52.1265625,11.0601563 L52.1153646,11.0028646 C51.8013021,9.26796875 51.5757812,7.5390625 51.1927083,5.8125 C50.7648437,3.878125 50.30625,1.94661458 49.8916667,0.00755208333 C48.0919271,0.0205729167 46.3151042,0.12890625 44.5651042,0.3265625 C44.9484375,2.27890625 45.1729167,4.26354167 45.3960937,6.09479167 C45.6356771,8.053125 45.3510417,7.18567708 46.4489583,8.8125" id="Fill-39"></path>
                            <path d="M79.7179687,17.721875 C81.4044271,16.7013021 83.7614583,17.5098958 83.7614583,17.5098958 C83.7614583,17.5098958 83.3841146,19.9731771 81.6979167,20.9934896 C80.0109375,22.0138021 77.6541667,21.2054688 77.6541667,21.2054688 C77.6541667,21.2054688 78.0309896,18.7421875 79.7179687,17.721875 M88.2429687,32.4546875 C89.8940104,33.5317708 90.1875,36.00625 90.1875,36.00625 C90.1875,36.00625 87.8044271,36.7346354 86.1536458,35.6575521 C84.5026042,34.5807292 84.2091146,32.10625 84.2091146,32.10625 C84.2091146,32.10625 86.5919271,31.3778646 88.2429687,32.4546875 M86.3565104,45.7578125 C85.1205729,47.29375 82.6291667,47.3408854 82.6291667,47.3408854 C82.6291667,47.3408854 82.1408854,44.8971354 83.3763021,43.3611979 C84.6119792,41.825 87.103125,41.7783854 87.103125,41.7783854 C87.103125,41.7783854 87.5914062,44.2221354 86.3565104,45.7578125 M79.1520833,37.2541667 C79.1520833,37.2541667 76.6653646,37.0953125 75.5,35.5049479 C74.3354167,33.9148438 74.9335937,31.4960938 74.9335937,31.4960938 C74.9335937,31.4960938 77.4200521,31.6549479 78.5848958,33.2450521 C79.75,34.8354167 79.1520833,37.2541667 79.1520833,37.2541667 M79.2101562,49.4588542 C79.2101562,49.4588542 76.9518229,50.5127604 75.1666667,49.6763021 C73.3817708,48.8401042 72.7458333,46.4307292 72.7458333,46.4307292 C72.7458333,46.4307292 75.0041667,45.3773438 76.7890625,46.2135417 C78.5742187,47.0497396 79.2101562,49.4588542 79.2101562,49.4588542 M70.2117187,41.7247396 C68.7338542,43.0294271 66.2705729,42.6539063 66.2705729,42.6539063 C66.2705729,42.6539063 66.2026042,40.1630208 67.6804687,38.8583333 C69.1580729,37.5536458 71.6213542,37.9294271 71.6213542,37.9294271 C71.6213542,37.9294271 71.6890625,40.4203125 70.2117187,41.7247396 M68.2348958,55.7861979 C66.5351562,56.7848958 64.1888021,55.9463542 64.1888021,55.9463542 C64.1888021,55.9463542 64.5976562,53.4882813 66.2971354,52.4895833 C67.9966146,51.490625 70.3429687,52.3296875 70.3429687,52.3296875 C70.3429687,52.3296875 69.9338542,54.7875 68.2348958,55.7861979 M74.2565104,28.7223958 C73.7236979,30.39375 73.0403646,31.1330729 71.8747396,32.4875 C70.5664062,34.0101563 69.1984375,35.4802083 67.8708333,36.9877604 C67.1770833,37.7744792 66.5583333,38.7575521 65.7578125,39.4632813 C65.8080729,39.9 65.8544271,40.3372396 65.9046875,40.7739583 C66.1208333,42.6515625 67.3596354,46.5677083 66.4476562,48.3901042 C64.8713542,51.5346354 63.3145833,54.6888021 61.7085937,57.8182292 C60.0864583,60.9804688 58.4648437,64.1424479 56.8427083,67.3046875 C60.8710937,65.4151042 65.0309896,63.7421875 69.0864583,61.9710938 C72.1179687,60.6466146 76.1929687,59.6502604 78.8705729,57.6721354 C79.8302083,56.9632813 80.7513021,56.1916667 81.6455729,55.3820313 L81.6341146,55.3520833 C80.7479167,51.7760417 79.9049479,48.1911458 79.1114583,44.5932292 C78.8755208,43.5263021 78.6658854,42.8195313 78.9411458,41.7791667 C80.3486979,36.4700521 81.4075521,31.1111979 82.1333333,25.6669271 C82.1658854,25.4223958 82.5424479,25.3143229 82.6033854,25.603125 C83.6802083,30.7020833 82.2122396,36.5283854 81.0010417,41.5054688 C80.8893229,41.965625 80.8354167,43.321875 80.6515625,42.5257813 C80.8197917,43.2557292 80.9919271,43.9848958 81.1682292,44.7125 C81.8864583,47.6609375 82.6804687,50.5971354 83.6208333,53.4830729 C85.1161458,51.9528646 86.5145833,50.3260417 87.8247396,48.6869792 C89.1200521,47.0666667 90.3541667,45.3885417 91.5200521,43.6632813 C91.4106771,41.2916667 91.2817708,38.9205729 91.1661458,36.5489583 C91.0026042,33.2247396 90.4299479,29.6135417 91.1442708,26.3398438 C91.2007812,26.0789063 91.5596354,26.1158854 91.6354167,26.3398438 C92.8075521,29.8252604 92.6367187,33.9010417 92.9632812,37.5453125 C93.0638021,38.6734375 93.1679687,39.8013021 93.2773437,40.9286458 C93.8807292,39.9401042 94.4625,38.9401042 95.0117187,37.9239583 C95.8890625,36.3020833 96.6203125,34.5721354 97.3341146,32.8296875 C93.9195312,23.5513021 87.8393229,15.5632813 80.0234375,9.78984375 C79.3666667,12.5190104 78.3916667,15.2270833 77.6236979,17.7986979 C76.5328125,21.4492188 75.4130208,25.0924479 74.2565104,28.7223958" id="Fill-40"></path>
                            <path d="M46.803125,42.3322917 C45.0992188,41.3408854 44.6802083,38.884375 44.6802083,38.884375 C44.6802083,38.884375 47.0234375,38.0359375 48.7265625,39.0276042 C50.4302083,40.0192708 50.8492188,42.4757812 50.8492188,42.4757812 C50.8492188,42.4757812 48.5065104,43.3242187 46.803125,42.3322917 M42.7955729,32.8893229 C41.3588542,34.2393229 38.8848958,33.9398437 38.8848958,33.9398437 C38.8848958,33.9398437 38.7408854,31.4523437 40.1776042,30.1020833 C41.6140625,28.753125 44.0875,29.0523437 44.0875,29.0523437 C44.0875,29.0523437 44.2322917,31.5401042 42.7955729,32.8893229 M42.6471354,14.1960937 C42.6471354,14.1960937 45.1184896,14.5161458 46.1776042,16.178125 C47.2369792,17.8408854 46.4833333,20.2158854 46.4833333,20.2158854 C46.4833333,20.2158854 44.0119792,19.8958333 42.9528646,18.2333333 C41.8934896,16.5710937 42.6471354,14.1960937 42.6471354,14.1960937 M42.1515625,51.8283854 C43.2807292,50.2130208 45.7632813,49.9989583 45.7632813,49.9989583 C45.7632813,49.9989583 46.4148438,52.4039062 45.2854167,54.0195312 C44.15625,55.6351562 41.6734375,55.8492187 41.6734375,55.8492187 C41.6734375,55.8492187 41.0221354,53.4442708 42.1515625,51.8283854 M37.0447917,10.0552083 C35.9856771,11.7179687 33.5143229,12.0377604 33.5143229,12.0377604 C33.5143229,12.0377604 32.7606771,9.66302083 33.8200521,8.00026042 C34.8791667,6.33802083 37.3502604,6.01796875 37.3502604,6.01796875 C37.3502604,6.01796875 38.1041667,8.39296875 37.0447917,10.0552083 M32.9942708,22.6369792 C32.9942708,22.6369792 33.7481771,25.0117187 32.6888021,26.6742187 C31.6296875,28.3367187 29.1583333,28.6565104 29.1583333,28.6565104 C29.1583333,28.6565104 28.4046875,26.2817708 29.4640625,24.6190104 C30.5231771,22.9570312 32.9942708,22.6369792 32.9942708,22.6369792 M28.3328125,13.8270833 C27.2734375,15.4895833 24.8023438,15.8096354 24.8023438,15.8096354 C24.8023438,15.8096354 24.0486979,13.4346354 25.1080729,11.771875 C26.1671875,10.1098958 28.6382813,9.78984375 28.6382813,9.78984375 C28.6382813,9.78984375 29.3921875,12.1645833 28.3328125,13.8270833 M49.1518229,36.4484375 C47.7549479,33.1802083 46.3354167,29.9197917 44.9627604,26.6408854 C44.1596354,24.7231771 45.190625,23.5888021 46.1372396,21.8541667 C47.1190104,20.0572917 48.1229167,18.2726562 49.1171875,16.4835937 C47.6427083,14.2697917 46.1786458,12.05 44.7388021,9.8125 C44.190625,8.959375 43.7005208,8.35755208 43.6075521,7.35598958 C43.3958333,5.07239583 43.0833333,2.815625 42.7231771,0.566666667 C35.1330729,1.71067708 28.1010417,4.55729167 22.0265625,8.703125 C22.9799479,11.553125 23.6877604,14.5333333 24.6151042,17.3257812 C25.7716146,20.8101562 26.9736979,24.2765625 28.2393229,27.7231771 C28.4479167,28.2901042 29.3666667,29.7997396 28.6705729,29.1036458 C29.3833333,29.8164062 30.1015625,30.5229167 30.8247396,31.2244792 C32.2940104,32.6492187 33.6835938,34.1596354 35.0742188,35.6604167 C35.1080729,35.696875 35.1450521,35.7325521 35.1799479,35.7684896 C35.5518229,32.3507812 35.8708333,28.9117187 36.1885417,25.4671875 C34.9570313,22.0213542 33.5421875,18.6408854 32.3309896,15.1888021 C31.3947917,12.5184896 30.1591146,9.78723958 30.0705729,6.91927083 C30.0640625,6.71302083 30.3367188,6.70807292 30.4049479,6.87421875 C32.2875,11.5190104 34.6473958,15.9841146 36.646875,20.6057292 C37.1755208,15.175 37.7908854,9.75651042 38.7403646,4.42578125 C38.8018229,4.08046875 39.2934896,4.19296875 39.3166667,4.50338542 C39.3692708,5.21927083 39.4273438,5.93828125 39.4182292,6.65651042 C39.2807292,18.0278646 38.1177083,29.4367187 37.2786458,40.7739583 C37.1398438,42.6403646 36.9789063,44.5046875 36.8205729,46.3695312 C36.7924479,46.6971354 36.7638021,47.0252604 36.7354167,47.3526042 C38.6127604,50.9007812 40.49375,54.4463542 42.3361979,58.0119792 C44.2716146,61.7570312 46.2057292,65.5023437 48.1408854,69.2473958 C48.190625,69.3442708 48.2270833,69.4473958 48.2674479,69.5486979 L48.5523438,69.5486979 C49.0476563,64.3598958 49.5533854,59.1716146 50.0708333,53.9848958 C48.4997396,51.2986979 46.9106771,48.6234375 45.2929688,45.9635417 C43.4276042,42.8940104 41.0869792,39.7205729 39.9611979,36.3015625 C39.9151042,36.1614583 40.1078125,36.0536458 40.2070313,36.1591146 C42.8731771,38.9955729 44.7026042,42.7570312 46.9632813,45.9372396 C48.1072917,47.546875 49.2536458,49.1541667 50.3950521,50.7658854 C50.6971354,47.7645833 50.9960938,44.7632812 51.303125,41.7627604 C51.3135417,41.6677083 51.3236979,41.5992187 51.3330729,41.54375 C51.2260417,41.2955729 51.1192708,41.0471354 51.0127604,40.7989583 C50.3908854,39.3494792 49.771875,37.8986979 49.1518229,36.4484375" id="Fill-41"></path>
                            <path d="M55.2854167,41.9179688 C55.2854167,41.9179688 55.8367188,39.4880208 57.5914063,38.5901042 C59.3460938,37.6914063 61.6395833,38.6653646 61.6395833,38.6653646 C61.6395833,38.6653646 61.0885417,41.0958333 59.3338542,41.99375 C57.5791667,42.8919271 55.2854167,41.9179688 55.2854167,41.9179688 M58.846875,55.8492188 C58.846875,55.8492188 56.3640625,55.6351563 55.2348958,54.0195313 C54.1052083,52.4039063 54.7570313,49.9989583 54.7570313,49.9989583 C54.7570313,49.9989583 57.2393229,50.2130208 58.36875,51.8283854 C59.4981771,53.4442708 58.846875,55.8492188 58.846875,55.8492188 M56.4328125,29.0523438 C56.4328125,29.0523438 58.90625,28.753125 60.3427083,30.1020833 C61.7794271,31.4523438 61.6354167,33.9398438 61.6354167,33.9398438 C61.6354167,33.9398438 59.1614583,34.2393229 57.7247396,32.8893229 C56.2880208,31.5401042 56.4328125,29.0523438 56.4328125,29.0523438 M54.0057292,6.01536458 C54.0057292,6.01536458 53.6864583,3.54401042 55.0244792,2.09661458 C56.3627604,0.648958333 58.8513021,0.773697917 58.8513021,0.773697917 C58.8513021,0.773697917 59.1705729,3.2453125 57.8328125,4.6921875 C56.4945313,6.13984375 54.0057292,6.01536458 54.0057292,6.01536458 M52.2981771,29.0830729 C52.2981771,29.0830729 50.0252604,28.0617188 49.4924479,26.1638021 C48.9591146,24.2658854 50.3679688,22.2104167 50.3679688,22.2104167 C50.3679688,22.2104167 52.6411458,23.2320313 53.1736979,25.1296875 C53.7067708,27.0276042 52.2981771,29.0830729 52.2981771,29.0830729 M63.1700521,6.01796875 C63.1700521,6.01796875 65.6411458,6.33802083 66.7002604,8.00026042 C67.7596354,9.66302083 67.0059896,12.0377604 67.0059896,12.0377604 C67.0059896,12.0377604 64.5346354,11.7179688 63.4757813,10.0552083 C62.4161458,8.39296875 63.1700521,6.01796875 63.1700521,6.01796875 M71.05625,24.6190104 C72.115625,26.2817708 71.3619792,28.6565104 71.3619792,28.6565104 C71.3619792,28.6565104 68.8908854,28.3367188 67.8315104,26.6742188 C66.7721354,25.0117188 67.5257813,22.6369792 67.5257813,22.6369792 C67.5257813,22.6369792 69.9973958,22.9570313 71.05625,24.6190104 M71.8820313,9.78984375 C71.8820313,9.78984375 74.353125,10.1098958 75.4125,11.771875 C76.4716146,13.4346354 75.7179688,15.8096354 75.7179688,15.8096354 C75.7179688,15.8096354 73.246875,15.4895833 72.1875,13.8270833 C71.1278646,12.1645833 71.8820313,9.78984375 71.8820313,9.78984375 M62.9091146,49.0096354 C63.1924479,48.4721354 63.4763021,47.9354167 63.7609375,47.3981771 L63.7856771,47.3486979 C63.5552083,44.6494792 63.3427083,41.9486979 63.1395833,39.2473958 C63.1278646,39.1723958 63.1213542,39.0979167 63.1213542,39.021875 C63.090625,38.5981771 63.0520833,38.1752604 63.0210938,37.7515625 C62.7278646,33.7442708 62.4447917,29.7364583 62.1682292,25.728125 C62.0742188,25.5372396 62.0484375,25.3059896 62.1216146,25.0419271 C61.9932292,23.1776042 61.8630208,21.3140625 61.7408854,19.4497396 C61.4179688,14.5049479 60.8390625,9.45911458 61.2041667,4.50338542 C61.2276042,4.19296875 61.7190104,4.08046875 61.7807292,4.42578125 C61.9119792,5.16666667 62.0536458,5.90859375 62.1434896,6.65651042 C62.7151042,11.4057292 63.2338542,16.1611979 63.7429688,20.9179688 C65.7692708,16.1856771 68.1911458,11.6234375 70.115625,6.87421875 C70.1841146,6.70807292 70.4567708,6.71302083 70.4505208,6.91927083 C70.3617188,9.7859375 69.1291667,12.5205729 68.1898438,15.1888021 C66.9648438,18.6674479 65.5403646,22.0739583 64.3026042,25.5484375 C64.2888021,25.5869792 64.2692708,25.6184896 64.2526042,25.6544271 C64.6091146,29.0101563 64.9731771,32.3648438 65.3427083,35.7190104 C65.5661458,35.5049479 65.7838542,35.2953125 65.9755208,35.0914063 C67.3455729,33.6273438 68.71875,32.1664063 70.1619792,30.7742188 C70.6265625,30.3270833 71.0822917,29.8729167 71.5375,29.4171875 C71.6174479,29.3375 71.6742188,29.2841146 71.7179688,29.2458333 C71.9635417,28.5859375 72.2083333,27.9255208 72.4489583,27.2643229 C73.7559896,23.68125 75.0091146,20.0804688 76.1929688,16.4544271 C77.0138021,13.9408854 77.6604167,11.2755208 78.5057292,8.71119792 C70.8669271,3.49427083 61.7119792,0.33515625 51.8375,0.0299479167 C52.2747396,1.77838542 52.6893229,3.53229167 53.1096354,5.28411458 C53.5098958,6.94921875 55.3161458,10.2716146 54.5700521,11.9929688 C52.5953125,16.5455729 50.0757813,20.9208333 47.7648438,25.3216146 C48.7375,27.5255208 49.6973958,29.7351563 50.65625,31.9442708 C51.8359375,30.421875 52.9296875,28.8304688 53.9833333,27.2223958 C54.0518229,27.1182292 54.096875,27.0692708 54.1263021,27.0505208 C54.1289063,26.9880208 54.1354167,26.9007813 54.1481771,26.7789063 C54.2049479,26.2778646 54.2653646,25.7789063 54.3320313,25.2791667 C54.7296875,22.265625 55.1044271,18.584375 57.034375,16.1205729 C57.1619792,15.9578125 57.4604167,16.0916667 57.4434896,16.2898438 C57.1434896,19.9010417 56.3289063,23.4596354 56.05625,27.0875 C55.9932292,27.9158854 55.496875,28.5026042 55.0552083,29.1960938 C53.9476563,30.9385417 52.8395833,32.68125 51.7354167,34.4260417 C52.3713542,35.8848958 53.0080729,37.34375 53.6411458,38.8039063 C53.9039063,39.4088542 54.6539063,40.5830729 54.5833333,41.2856771 C53.6338542,50.7020833 52.6973958,60.121875 51.8575521,69.5486979 L52.3726563,69.5486979 C52.5221354,69.0723958 52.7309896,68.5682292 53.0416667,67.9671875 C55.2497396,63.6945313 57.4255208,59.4044271 59.6643229,55.1481771 C60.7411458,53.0997396 61.8270833,51.0557292 62.9091146,49.0096354" id="Fill-42"></path>
                            <path d="M90.0755208,64.2075521 C90.0755208,64.2075521 92.5286458,64.6440104 93.5083333,66.3549479 C94.4875,68.0651042 93.6221354,70.4020833 93.6221354,70.4020833 C93.6221354,70.4020833 91.1690104,69.965625 90.1895833,68.2549479 C89.2098958,66.5442708 90.0755208,64.2075521 90.0755208,64.2075521 M78.2080729,60.7458333 C75.8778646,61.9273438 73.1653646,62.7239583 70.9138021,63.7158854 C65.6023437,66.05625 58.8341146,69.6135417 53.7622396,72.465625 C53.8591146,73.5114583 55.0463542,89.9216146 55.7723958,99.9919271 C75.9757812,97.7828125 92.5692708,83.5742188 98.2760417,64.6432292 C94.8893229,64.4242188 91.4117187,63.3674479 88.1333333,62.7078125 C84.8263021,62.0419271 81.5223958,61.3692708 78.2080729,60.7458333" id="Fill-43"></path>
                            <path d="M98.64375,54.1052083 C98.64375,54.1052083 96.1723958,54.421875 94.7265625,53.0822917 C93.2804688,51.7429687 93.4075521,49.2541667 93.4075521,49.2541667 C93.4075521,49.2541667 95.8789063,48.9372396 97.325,50.2770833 C98.7710938,51.6164062 98.64375,54.1052083 98.64375,54.1052083 M90.6859375,59.559375 C89.0291667,60.628125 86.65,59.8872396 86.65,59.8872396 C86.65,59.8872396 86.9567708,57.4143229 88.6132813,56.3458333 C90.2697917,55.2776042 92.6486979,56.0182292 92.6486979,56.0182292 C92.6486979,56.0182292 92.3424479,58.4911458 90.6859375,59.559375 M100.364323,48.178125 C97.0236979,48.6713542 93.4755208,48.7260417 90.2432292,49.2197917 L90.1898438,49.2231771 C90.1263021,49.3052083 90.0671875,49.3880208 90.0054688,49.4695312 C87.2841146,53.0046875 84.2705729,56.3554687 80.7513021,59.1171875 C83.6039063,59.9195312 86.4450521,60.76875 89.3078125,61.5348958 C92.3049479,62.3364583 95.5596354,62.815625 98.5117188,63.8494792 C99.7455729,59.4947917 100.40625,54.8989583 100.40625,50.1489583 C100.40625,49.4885417 100.389583,48.8322917 100.364323,48.178125" id="Fill-44"></path>
                        </g>
                    </g>
                </g>
            </g>
        </g>
    </g>
</svg>